<?xml version="1.0" encoding="UTF-8"?>
<svg version="1.1" xmlns="http://www.w3.org/2000/svg" width="512" height="512">
<path d="M0 0 C3.63388166 2.68623696 6.25846088 5.55363724 7.5625 9.9375 C9.21653402 21.25171611 5.22541949 32.46188221 2.33203125 43.26171875 C1.77898623 45.36887598 1.22723138 47.4763722 0.67668152 49.58418274 C-0.78000606 55.14678778 -2.25429244 60.70457947 -3.73236084 66.26153564 C-5.18317179 71.72819132 -6.61727725 77.19921859 -8.05273438 82.66992188 C-10.62212001 92.45347853 -13.21243138 102.23135381 -15.81011772 112.00742912 C-17.61082197 118.79350493 -19.39158424 125.58449346 -21.15760708 132.37967587 C-22.33496401 136.90745653 -23.51891219 141.43350132 -24.70351601 145.95939064 C-25.26227311 148.1011547 -25.81797542 150.24371837 -26.37041283 152.3871212 C-27.13508691 155.35246347 -27.91070804 158.31474525 -28.6887207 161.27661133 C-29.01846736 162.57308688 -29.01846736 162.57308688 -29.35487556 163.89575386 C-31.12901489 170.58081153 -33.27953213 177.84129473 -38.875 182.3125 C-39.43058594 182.77398437 -39.98617188 183.23546875 -40.55859375 183.7109375 C-46.75542862 187.75627253 -53.25614986 187.6815917 -60.4375 186.9375 C-63.42103971 185.88824291 -65.70951391 184.58458594 -68.4375 182.9375 C-69.0975 182.9375 -69.7575 182.9375 -70.4375 182.9375 C-71.84227318 184.32440528 -71.84227318 184.32440528 -73.32421875 186.1953125 C-77.80810405 191.46327149 -82.68780838 196.30089949 -87.59384155 201.16900635 C-89.28742862 202.8496424 -90.97770777 204.53354629 -92.66723633 206.21826172 C-96.86111018 210.39888011 -101.06045399 214.5739898 -105.25964355 218.74926758 C-108.81957831 222.28935717 -112.37737821 225.83156722 -115.9324646 229.37652588 C-117.58482532 231.02248106 -119.24020465 232.66535645 -120.89575195 234.30810547 C-126.99640754 240.36177172 -126.99640754 240.36177172 -132.74609375 246.74609375 C-137.87670342 252.74217222 -143.59359032 258.20243396 -149.18658447 263.76174927 C-151.35061041 265.91288337 -153.51138478 268.06723789 -155.67138672 270.22241211 C-161.03393673 275.57167053 -166.40194046 280.91544525 -171.76977539 286.25939941 C-176.31612986 290.78594978 -180.86038075 295.31459261 -185.4019165 299.84597778 C-187.51962905 301.95725925 -189.64035548 304.06548008 -191.76123047 306.17358398 C-200.02166498 314.39957363 -200.02166498 314.39957363 -207.80712891 323.07113647 C-211.37303829 327.15320297 -215.24767109 330.95320827 -219.0625 334.80078125 C-219.96822754 335.71458054 -220.87395508 336.62837982 -221.80712891 337.56987 C-223.71117389 339.48880677 -225.6177026 341.40524213 -227.52539062 343.32055664 C-229.95796165 345.76425534 -232.3786074 348.21943105 -234.79690552 350.67724323 C-237.12675078 353.03959018 -239.47060297 355.38788229 -241.8125 357.73828125 C-242.67311035 358.61639969 -243.5337207 359.49451813 -244.42041016 360.39924622 C-250.53728761 366.49424001 -255.39375468 370.36294464 -264.375 370.375 C-265.81166016 370.40400391 -265.81166016 370.40400391 -267.27734375 370.43359375 C-274.65324231 369.2756962 -279.85658227 365.10670214 -284.90625 359.859375 C-285.47202759 359.28793762 -286.03780518 358.71650024 -286.62072754 358.12774658 C-288.40271053 356.32360453 -290.1701703 354.50598671 -291.9375 352.6875 C-293.15270742 351.45220115 -294.36884544 350.21781703 -295.5859375 348.984375 C-298.54731067 345.97920673 -301.49575426 342.96187905 -304.4375 339.9375 C-305.13512451 340.38262939 -305.83274902 340.82775879 -306.55151367 341.28637695 C-334.64874763 359.19384665 -362.98755174 374.9500086 -394.5 386.125 C-396.11406738 386.70544067 -396.11406738 386.70544067 -397.76074219 387.29760742 C-403.5443849 389.27961659 -408.31743458 390.54039304 -414.4375 389.9375 C-416.9375 388.375 -416.9375 388.375 -418.4375 385.9375 C-418.9375 382.4375 -418.9375 382.4375 -418.4375 378.9375 C-415.45699054 375.14412433 -412.35914593 373.91923059 -407.84765625 372.4140625 C-406.5063589 371.95364016 -405.16530492 371.49250838 -403.82446289 371.03076172 C-403.11983917 370.79226501 -402.41521545 370.55376831 -401.6892395 370.30804443 C-372.16449273 360.25340647 -341.85388081 346.5977071 -317.4375 326.9375 C-318.0672876 326.31294922 -318.6970752 325.68839844 -319.34594727 325.04492188 C-321.71685645 322.69121686 -324.085374 320.33515427 -326.45239258 317.97753906 C-327.47067292 316.96423848 -328.48985474 315.95184288 -329.51000977 314.94042969 C-334.83565886 309.65922636 -340.10335286 304.37740369 -344.94213867 298.63720703 C-346.59894887 296.75398865 -348.36764607 295.03756213 -350.1875 293.3125 C-354.88186924 288.63918175 -356.99876647 283.94429356 -357.484375 277.35546875 C-357.17340711 261.3147085 -340.35825143 249.75457129 -329.8125 239.3125 C-327.06730446 236.59415547 -324.32562568 233.87233134 -321.5859375 231.1484375 C-320.97221283 230.54301117 -320.35848816 229.93758484 -319.72616577 229.31381226 C-316.75855424 226.36278549 -313.90964647 223.36743573 -311.18530273 220.18969727 C-306.49752507 214.76675784 -301.39542445 209.75117941 -296.32421875 204.69140625 C-295.26269707 203.62920955 -294.20132376 202.56686457 -293.14009094 201.50437927 C-290.93217037 199.29499489 -288.72247746 197.08740323 -286.51147461 194.88110352 C-283.67562558 192.0509932 -280.84434673 189.21635965 -278.01434612 186.38040257 C-275.8311934 184.19364427 -273.64567461 182.00926328 -271.45942116 179.82560539 C-270.41366979 178.78052113 -269.36866083 177.73469344 -268.32440758 176.68811226 C-266.87191236 175.23308608 -265.41626575 173.78128891 -263.9597168 172.33032227 C-263.13255661 171.50395767 -262.30539642 170.67759308 -261.45317078 169.82618713 C-258.08635956 166.67147898 -255.95450338 166.84531626 -251.4375 166.9375 C-246.72604124 166.9375 -244.32112879 163.54492084 -241.13525391 160.41015625 C-238.32151924 157.54742505 -238.32151924 157.54742505 -237.2578125 153.8125 C-237.6223128 152.58038632 -237.99826973 151.35159339 -238.38661194 150.12678528 C-238.52555958 144.1490369 -230.45327206 137.97309527 -226.43167114 133.75723267 C-223.04809457 130.26264349 -219.60614025 126.82740387 -216.16015625 123.39453125 C-214.8995652 122.13258977 -213.6392709 120.87035181 -212.3792572 119.60783386 C-209.76119433 116.98684722 -207.13961041 114.36945054 -204.51538086 111.75463867 C-201.14698086 108.39773843 -197.78778355 105.03179332 -194.43108463 101.66319752 C-191.84142171 99.06633171 -189.24704476 96.47421788 -186.65118217 93.88355064 C-185.40930726 92.64301112 -184.16891969 91.40098083 -182.93004036 90.15744972 C-181.20952217 88.43188077 -179.48277501 86.71280409 -177.75415039 84.99536133 C-177.24248825 84.47965073 -176.73082611 83.96394012 -176.20365906 83.43260193 C-172.66604965 79.9375 -172.66604965 79.9375 -170.4375 79.9375 C-170.91960937 79.34582031 -171.40171875 78.75414063 -171.8984375 78.14453125 C-172.53007812 77.35433594 -173.16171875 76.56414062 -173.8125 75.75 C-174.43898438 74.97269531 -175.06546875 74.19539063 -175.7109375 73.39453125 C-180.03125147 67.24639214 -180.1888939 61.25170142 -179.4375 53.9375 C-177.74094411 47.83193061 -173.81660602 43.21720673 -168.4375 39.9375 C-162.83164886 37.69959692 -157.218283 35.95572876 -151.38671875 34.41650391 C-150.51655624 34.1833548 -149.64639374 33.95020569 -148.74986267 33.70999146 C-145.87589707 32.94092632 -143.00045996 32.17751952 -140.125 31.4140625 C-138.07656032 30.86694063 -136.02822257 30.31943702 -133.97998047 29.77157593 C-128.56108562 28.32311385 -123.14096112 26.87930891 -117.72052002 25.43664551 C-111.33903219 23.73749385 -104.95871475 22.03395429 -98.57859802 20.32966232 C-93.28781264 18.9164114 -87.99648587 17.5052723 -82.70385742 16.09893799 C-71.76197227 13.18774369 -60.83654711 10.22645775 -49.9296875 7.18652344 C-46.6518012 6.2784477 -43.37364006 5.37137083 -40.09539795 4.46458054 C-38.01618954 3.8860685 -35.93838054 3.30249929 -33.86212158 2.71348953 C-30.98433947 1.89717463 -28.10222638 1.098173 -25.21875 0.30224609 C-24.38761688 0.06117504 -23.55648376 -0.17989601 -22.70016479 -0.42827225 C-15.2273937 -2.45985139 -7.04879236 -3.85487505 0 0 Z " fill="#010101" transform="translate(504.4375,13.0625)"/>
<path d="M0 0 C1.9651947 1.23693848 1.9651947 1.23693848 3.69116211 2.99414062 C4.34882065 3.64902466 5.00647919 4.30390869 5.68406677 4.9786377 C6.37484818 5.69724976 7.06562958 6.41586182 7.77734375 7.15625 C8.50691788 7.89194214 9.236492 8.62763428 9.98817444 9.38562012 C12.31900871 11.74338596 14.62795915 14.12139192 16.9375 16.5 C18.48759812 18.07162951 20.03901713 19.6419574 21.59179688 21.2109375 C32.91422562 32.69907508 32.91422562 32.69907508 37.50048828 38.02685547 C41.09122059 42.17517183 44.95651086 45.98124118 48.90234375 49.7890625 C50.38419869 51.23883229 51.86529722 52.68937558 53.34570312 54.140625 C55.65186854 56.3971875 57.96213065 58.64873681 60.28540039 60.88769531 C62.54655808 63.07029278 64.78821229 65.27140381 67.02734375 67.4765625 C67.72721909 68.14233307 68.42709442 68.80810364 69.1481781 69.49404907 C70.10531456 70.44566422 70.10531456 70.44566422 71.08178711 71.41650391 C71.64691513 71.96529205 72.21204315 72.5140802 72.79429626 73.07949829 C74.55415999 75.88269213 74.43521214 77.75315508 74 81 C72.5149231 83.28756714 72.5149231 83.28756714 70.35986328 85.51123047 C69.5327887 86.37552673 68.70571411 87.239823 67.85357666 88.13031006 C66.90360165 89.08808221 65.95235066 90.04459001 65 91 C63.97121441 92.04792048 62.94272182 93.09612868 61.91448975 94.14459229 C59.01133573 97.08962947 56.08460711 100.01023262 53.15063095 102.92453384 C51.19643712 104.86575927 49.24556401 106.81027066 47.29544067 108.75558472 C43.15812777 112.88157293 39.01686739 117.00358449 34.875 121.125 C30.06233554 125.91394438 25.25136849 130.70456953 20.44461441 135.49944687 C18.53519917 137.40244538 16.62276761 139.30237512 14.71017456 141.20217896 C7.95522424 147.87647797 7.95522424 147.87647797 1.58642578 154.91357422 C-3.4990855 160.88180251 -9.19208376 166.30071067 -14.74908447 171.82424927 C-16.91311041 173.97538337 -19.07388478 176.12973789 -21.23388672 178.28491211 C-26.59643673 183.63417053 -31.96444046 188.97794525 -37.33227539 194.32189941 C-41.87862986 198.84844978 -46.42288075 203.37709261 -50.9644165 207.90847778 C-53.08212905 210.01975925 -55.20285548 212.12798008 -57.32373047 214.23608398 C-65.78634754 222.60851893 -65.78634754 222.60851893 -73.60107422 231.57983398 C-75.23683972 233.24043572 -76.87756799 234.06834611 -79 235 C-81.35852656 232.67104031 -83.71096674 230.3360189 -86.0625 228 C-86.71927734 227.35160156 -87.37605469 226.70320312 -88.05273438 226.03515625 C-88.70693359 225.38417969 -89.36113281 224.73320312 -90.03515625 224.0625 C-90.6269165 223.47597656 -91.21867676 222.88945312 -91.82836914 222.28515625 C-93.59895425 220.42201104 -95.26002095 218.52868512 -96.92578125 216.57421875 C-102.3567345 210.3355078 -108.29409037 204.58277023 -114.15234375 198.75 C-115.42051264 197.48369957 -116.68845842 196.21717567 -117.95619202 194.95043945 C-121.26980711 191.64061579 -124.58641572 188.3338081 -127.90368652 185.02764893 C-131.29765305 181.64396961 -134.6887388 178.25740585 -138.08007812 174.87109375 C-144.7172578 168.24459178 -151.35760795 161.62127682 -158 155 C-157.06782632 153.89968651 -156.13377809 152.800961 -155.19897461 151.70288086 C-154.4190641 150.78483925 -154.4190641 150.78483925 -153.62339783 149.84825134 C-150.57798699 146.38102688 -147.24416086 143.20359003 -143.94335938 139.98242188 C-141.12427294 137.20394653 -138.43468344 134.37953986 -135.86645508 131.36645508 C-131.72761177 126.61425327 -127.29744007 122.18928731 -122.8203125 117.7578125 C-121.54025833 116.48343826 -121.54025833 116.48343826 -120.23434448 115.18331909 C-117.5336567 112.4947588 -114.82973632 109.80948696 -112.125 107.125 C-108.54142986 103.56794676 -104.96113213 100.00764667 -101.3828125 96.4453125 C-100.55685577 95.62765411 -99.73089905 94.80999573 -98.87991333 93.96755981 C-98.12177338 93.21272308 -97.36363342 92.45788635 -96.58251953 91.68017578 C-95.91302277 91.01591583 -95.243526 90.35165588 -94.55374146 89.66726685 C-92.39140286 87.34693521 -92.01476776 86.33965845 -91.875 83.125 C-91.85464136 80.14565111 -91.85464136 80.14565111 -92.64379883 77.99536133 C-92.76134521 77.33689209 -92.8788916 76.67842285 -93 76 C-91.30154361 73.6185019 -89.7318377 71.73396532 -87.6875 69.6875 C-86.86306396 68.85545044 -86.86306396 68.85545044 -86.02197266 68.0065918 C-81.80639631 64.0729877 -81.80639631 64.0729877 -78.32421875 63.7578125 C-76.69203404 64.12746199 -75.06418968 64.51682941 -73.44140625 64.92578125 C-69.80427387 65.03635007 -68.45442994 63.40284126 -65.8125 61 C-64.18570552 59.35541246 -62.58008406 57.68951556 -61 56 C-59.77307723 54.81018175 -58.54415543 53.6224185 -57.3125 52.4375 C-55.07567175 50.16106091 -52.95794431 47.81878525 -50.88305664 45.39453125 C-44.04712777 37.55303132 -36.606008 30.26322848 -29.28442383 22.87939453 C-27.37639965 20.95342733 -25.47729914 19.01925398 -23.58520508 17.07763672 C-20.84323582 14.26405351 -18.07702064 11.4750662 -15.30859375 8.6875 C-14.46469589 7.81577148 -13.62079803 6.94404297 -12.75132751 6.04589844 C-11.95352371 5.25086914 -11.15571991 4.45583984 -10.33374023 3.63671875 C-9.63981674 2.93248779 -8.94589325 2.22825684 -8.23094177 1.50268555 C-5.26756987 -0.49333971 -3.50655254 -0.4909781 0 0 Z " fill="#FE6D81" transform="translate(348,105)"/>
<path d="M0 0 C1.3671875 1.29296875 1.3671875 1.29296875 2.875 3.1875 C6.30876348 7.29180528 9.96837821 11.09495083 13.75 14.875 C14.31702637 15.44629639 14.88405273 16.01759277 15.46826172 16.60620117 C20.15801006 21.55833624 20.15801006 21.55833624 26.5 23.125 C27.655 23.08375 28.81 23.0425 30 23 C33 23 33 23 34.53393555 24.19335938 C35.062854 24.73798828 35.59177246 25.28261719 36.13671875 25.84375 C37.00200195 26.72353516 37.00200195 26.72353516 37.88476562 27.62109375 C38.47966797 28.24113281 39.07457031 28.86117187 39.6875 29.5 C40.59725586 30.43005859 40.59725586 30.43005859 41.52539062 31.37890625 C43.02373743 32.91264707 44.51276493 34.45548198 46 36 C45.505 36.99 45.505 36.99 45 38 C44.39655694 40.89652671 44.24261185 42.21072228 45 45 C48.63725171 50.38031139 53.68054336 54.71294798 58.41796875 59.10546875 C59.19148682 59.83910645 59.96500488 60.57274414 60.76196289 61.32861328 C62.31841884 62.80000205 63.89686996 64.24851839 65.49780273 65.67138672 C66.58557007 66.70223389 66.58557007 66.70223389 67.6953125 67.75390625 C68.35547363 68.35533447 69.01563477 68.9567627 69.69580078 69.57641602 C73.17885966 76.04895916 68.94702933 85.8329153 67.19921875 92.4921875 C66.78274834 94.09382248 66.78274834 94.09382248 66.35786438 95.72781372 C65.77206985 97.96919034 65.18275367 100.20964923 64.59008789 102.44921875 C63.68576987 105.88156674 62.80452641 109.31933892 61.92382812 112.7578125 C61.35036255 114.94047359 60.77554019 117.12277875 60.19921875 119.3046875 C59.93864182 120.33278534 59.67806488 121.36088318 59.40959167 122.4201355 C59.02448174 123.84774704 59.02448174 123.84774704 58.6315918 125.30419922 C58.41254684 126.14087128 58.19350189 126.97754333 57.96781921 127.83956909 C56.72698518 130.60944197 55.71481355 131.63363588 53 133 C48.89516068 133.05250195 47.23363593 132.1861307 44.00978088 129.61778259 C42.93718142 128.56263029 41.87813317 127.49359069 40.83032227 126.41381836 C40.24572235 125.83155487 39.66112244 125.24929138 39.05880737 124.64938354 C37.13244872 122.72463729 35.2245134 120.78267152 33.31640625 118.83984375 C31.97514034 117.49178299 30.63283348 116.14475721 29.28953552 114.79872131 C25.75460409 111.25037838 22.2353543 107.68685503 18.71875 104.12036133 C15.86149562 101.22784418 12.99323394 98.34638621 10.12428379 95.46547604 C6.68445433 92.01077124 3.24978635 88.55095685 -0.18359375 85.08984375 C-0.83129667 84.43723005 -1.4789996 83.78461636 -2.14632988 83.11222649 C-8.05388549 77.15217256 -13.92049404 71.2197644 -19.37052917 64.83354187 C-22.70969753 61.07618403 -26.38257775 57.64259967 -29.99609375 54.15234375 C-31.70596945 52.47942616 -33.41492765 50.80557036 -35.12304688 49.13085938 C-37.7900325 46.51960549 -40.46171096 43.91416532 -43.14916992 41.32397461 C-45.7602064 38.80363704 -48.34840386 36.26165103 -50.93359375 33.71484375 C-51.74283798 32.94486557 -52.55208221 32.17488739 -53.385849 31.38157654 C-58.8028163 25.99217424 -58.8028163 25.99217424 -59.75415039 21.20532227 C-58.87191358 17.45560161 -57.91200507 16.4409902 -55 14 C-52.56504822 12.98748779 -52.56504822 12.98748779 -49.82006836 12.26074219 C-48.78897446 11.98075378 -47.75788055 11.70076538 -46.69554138 11.41229248 C-45.58816116 11.12670471 -44.48078094 10.84111694 -43.33984375 10.546875 C-42.19842422 10.24179016 -41.0570047 9.93670532 -39.8809967 9.62237549 C-37.47109398 8.98082783 -35.05945148 8.34578498 -32.64624023 7.71679688 C-28.94467058 6.75186923 -25.24843098 5.7684078 -21.55273438 4.78125 C-19.21122422 4.160376 -16.86943631 3.54054837 -14.52734375 2.921875 C-12.86323708 2.48134796 -12.86323708 2.48134796 -11.16551208 2.03192139 C-10.13757034 1.76454163 -9.1096286 1.49716187 -8.05053711 1.22167969 C-7.14548935 0.98503601 -6.24044159 0.74839233 -5.30796814 0.50457764 C-3 0 -3 0 0 0 Z " fill="#FCEA5D" transform="translate(400,52)"/>
<path d="M0 0 C-0.65471032 5.07896487 -1.61434263 10.01952627 -2.8125 15 C-3.07752319 16.11193726 -3.07752319 16.11193726 -3.34790039 17.24633789 C-5.6100439 26.65103652 -8.15190877 35.97723012 -10.75732422 45.29174805 C-10.96115723 46.02047119 -11.16499023 46.74919434 -11.375 47.5 C-11.57883301 48.22807861 -11.78266602 48.95615723 -11.99267578 49.70629883 C-14.79342147 59.76899334 -17.38854662 69.88687294 -20 80 C-23.22405761 78.58593181 -25.33557576 76.89002371 -27.78515625 74.375 C-28.82833008 73.31539062 -28.82833008 73.31539062 -29.89257812 72.234375 C-30.60865234 71.49703125 -31.32472656 70.7596875 -32.0625 70 C-33.48859839 68.53943012 -34.91689484 67.08100233 -36.34765625 65.625 C-36.97679932 64.97789063 -37.60594238 64.33078125 -38.25415039 63.6640625 C-40.81555158 61.22265423 -42.34670448 60.02779981 -45.9375 59.875 C-46.948125 59.91625 -47.95875 59.9575 -49 60 C-54.08582131 60 -55.89196776 57.95102666 -59.3125 54.5625 C-59.86719971 54.01480957 -60.42189941 53.46711914 -60.9934082 52.90283203 C-64.92778702 48.73028289 -64.92778702 48.73028289 -65.2421875 45.55078125 C-64.87250049 44.10067094 -64.48442483 42.65512457 -64.078125 41.21484375 C-63.95708434 37.78334116 -65.68105114 36.42489413 -67.9375 33.9375 C-69.60299112 32.2693984 -71.29089675 30.62338834 -73 29 C-74.52252471 27.46000369 -76.04351346 25.91848632 -77.5625 24.375 C-78.70573752 23.24736221 -79.8505287 22.12128264 -81 21 C-78.48652166 18.48652166 -76.72478086 18.26978623 -73.27734375 17.44921875 C-72.10751953 17.16546387 -70.93769531 16.88170898 -69.73242188 16.58935547 C-68.48009766 16.29174316 -67.22777344 15.99413086 -65.9375 15.6875 C-53.90583175 12.7637079 -53.90583175 12.7637079 -42 9.375 C-35.07056577 7.25707083 -28.08285024 5.46896484 -21.03515625 3.78662109 C-16.2236819 2.622268 -11.58590373 1.24024298 -6.93383789 -0.45776367 C-4.38004601 -1.17383131 -2.47958219 -0.87985174 0 0 Z " fill="#00DCC2" transform="translate(497,27)"/>
<path d="M0 0 C5.85956807 4.8655342 11.24772925 10.10226894 16.625 15.4921875 C17.53072754 16.39695831 18.43645508 17.30172913 19.36962891 18.23391724 C21.27734329 20.14016631 23.18326095 22.04818852 25.08789062 23.95751953 C27.50829891 26.3836162 29.93315962 28.80520494 32.35940552 31.22546196 C34.7003874 33.56192432 37.03751165 35.90223004 39.375 38.2421875 C40.23561035 39.10077362 41.0962207 39.95935974 41.98291016 40.84396362 C46.28950821 45.16716223 50.43211938 49.56063083 54.41116333 54.18655396 C56.80459785 56.91834158 59.35279495 59.47769977 61.93359375 62.03125 C62.71779442 62.81332825 62.71779442 62.81332825 63.51783752 63.61120605 C65.15534998 65.24321078 66.79633849 66.87166574 68.4375 68.5 C69.5620833 69.61955632 70.68643405 70.73934629 71.81054688 71.859375 C74.53769344 74.57561534 77.26795907 77.28868292 80 80 C77.99422818 84.38569266 75.10973405 87.29394312 71.75 90.6875 C71.18925781 91.28111328 70.62851563 91.87472656 70.05078125 92.48632812 C67.5056271 95.06381102 65.39517283 96.81984768 62.078125 98.33203125 C57.01951298 97.78636879 54.48478386 94.50704137 51 91 C49.67331299 89.70860107 49.67331299 89.70860107 48.31982422 88.39111328 C45.84395014 85.9760053 43.39486416 83.53550446 40.9543457 81.0847168 C39.4400742 79.56508332 37.9205257 78.05087483 36.40039062 76.53710938 C35.41113761 75.54719541 34.42219492 74.5569712 33.43359375 73.56640625 C32.55759521 72.68927979 31.68159668 71.81215332 30.77905273 70.90844727 C28.65931461 68.73731763 26.67064607 66.47883839 24.69311523 64.17773438 C20.84377505 59.74312853 16.69364798 55.6717484 12.4765625 51.58984375 C10.86254081 50.00791656 9.24928143 48.4252113 7.63671875 46.84179688 C5.12218747 44.37680694 2.60355187 41.91676763 0.07177734 39.46948242 C-2.3905271 37.08586332 -4.83326236 34.68358518 -7.2734375 32.27734375 C-8.03377289 31.55111313 -8.79410828 30.82488251 -9.57748413 30.0766449 C-15.34617075 24.33837585 -15.34617075 24.33837585 -16.08447266 20.14672852 C-15.9746565 16.05591808 -14.86329033 14.86329033 -12 12 C-11.17628906 11.15695312 -10.35257813 10.31390625 -9.50390625 9.4453125 C-8.26447266 8.23488281 -8.26447266 8.23488281 -7 7 C-6.28714844 6.27554687 -5.57429687 5.55109375 -4.83984375 4.8046875 C-3.24297314 3.18486392 -1.62803342 1.58828219 0 0 Z " fill="#00DBC1" transform="translate(179,270)"/>
<path d="M0 0 C2.84347276 2.14203124 5.2621109 4.65680771 7.734375 7.2109375 C8.45361145 7.93487701 9.1728479 8.65881653 9.91387939 9.4046936 C12.20453612 11.71666788 14.47696919 14.04570843 16.75 16.375 C18.29447406 17.93598384 19.84003547 19.49589262 21.38671875 21.0546875 C24.21040301 23.91230639 27.03351833 26.7703659 29.83886719 29.64599609 C30.40257019 30.22255951 30.96627319 30.79912292 31.54705811 31.39315796 C34.03131325 34.14055317 34.97299957 35.70299528 35.3125 39.4375 C35 43 35 43 33.9375 45.375 C30.86484658 47.95206416 29.00303918 48.19687078 25 48 C17.25603469 42.96914513 10.61285417 34.90304616 4.0612793 28.41137695 C2.7215091 27.08829865 1.3763789 25.77062747 0.02612305 24.45825195 C-1.94144048 22.545376 -3.89210927 20.61663167 -5.83984375 18.68359375 C-6.44392563 18.10218124 -7.04800751 17.52076874 -7.6703949 16.92173767 C-11.11067936 13.46377725 -12.92430218 11.11345589 -13 6 C-11.76356597 3.13667909 -10.66847461 1.50711867 -8.1875 -0.375 C-4.95645663 -1.29815525 -3.25883389 -0.9637666 0 0 Z " fill="#000000" transform="translate(128,418)"/>
<path d="M0 0 C4.20074611 1.51332307 7.04135029 5.02797898 10.07489014 8.18136597 C10.81727936 8.9298732 11.55966858 9.67838043 12.32455444 10.4495697 C14.68543403 12.83733436 17.02435786 15.24541781 19.36395264 17.65402222 C20.96027657 19.27187435 22.55791912 20.88842654 24.15692139 22.50363159 C27.06749916 25.45632063 29.97635458 28.41048979 32.86541748 31.38424683 C33.44608978 31.98079575 34.02676208 32.57734467 34.62503052 33.19197083 C36.77961838 35.60030476 36.99466742 36.77824185 37.30145264 40.09152222 C36.98895264 43.71652222 36.98895264 43.71652222 35.48895264 46.15402222 C31.99410317 48.33830313 28.93686907 48.61902212 24.98895264 47.71652222 C21.85298502 45.69210786 19.4058806 43.11405103 16.84051514 40.41964722 C16.10191254 39.67446838 15.36330994 38.92928955 14.60232544 38.16152954 C13.04846297 36.58686606 11.50415376 35.00272533 9.96893311 33.40988159 C7.61869354 30.97144104 5.24269896 28.56076185 2.86004639 26.15402222 C1.35197157 24.61909936 -0.15459198 23.08268989 -1.65948486 21.54464722 C-2.36777435 20.82158386 -3.07606384 20.09852051 -3.80581665 19.35354614 C-4.46054962 18.6731427 -5.11528259 17.99273926 -5.78985596 17.29171753 C-6.65300919 16.39903168 -6.65300919 16.39903168 -7.53359985 15.48831177 C-10.04006557 12.48249956 -11.06547795 10.60555516 -10.82354736 6.65402222 C-9.99475442 3.65761697 -9.43988048 2.56243539 -7.01104736 0.71652222 C-4.54236001 -0.51782146 -2.69579056 -0.44544179 0 0 Z " fill="#000000" transform="translate(35.01104736328125,325.2834777832031)"/>
<path d="M0 0 C1.9375 1.0625 1.9375 1.0625 3 3 C3.6403754 6.77821484 4.06462042 9.39540599 1.89770508 12.66137695 C1.38103271 13.22300537 0.86436035 13.78463379 0.33203125 14.36328125 C-0.3031543 15.05526611 -0.93833984 15.74725098 -1.59277344 16.46020508 C-2.3871582 17.2983374 -3.18154297 18.13646973 -4 19 C-4.48513062 19.51662201 -4.97026123 20.03324402 -5.47009277 20.56552124 C-8.95648827 24.27312225 -12.48760098 27.93330489 -16.05151367 31.56640625 C-17.31514881 32.86193897 -18.57064991 34.16545264 -19.81811523 35.4765625 C-21.6396885 37.38934541 -23.48616522 39.27462767 -25.33984375 41.15625 C-25.88905991 41.74361938 -26.43827606 42.33098877 -27.00413513 42.93615723 C-29.99001987 45.90746521 -31.95965568 47.36342524 -36.26000977 47.46289062 C-40 47 -40 47 -42.5 45.4375 C-44.68071663 41.89383548 -44.75331723 40.10900306 -44 36 C-38.82329448 28.3964974 -31.11944162 21.96747127 -24.61889648 15.48852539 C-22.67118197 13.54622735 -20.7289407 11.5985686 -18.78710938 9.65039062 C-17.54980017 8.41374125 -16.31218132 7.17740158 -15.07421875 5.94140625 C-14.49403488 5.35919815 -13.91385101 4.77699005 -13.31608582 4.17713928 C-8.4529886 -0.6574562 -6.83476326 -1.43889753 0 0 Z " fill="#000000" transform="translate(69,418)"/>
<path d="M0 0 C3.9375 0.4375 3.9375 0.4375 5.875 1.6875 C7.91796833 5.05238901 8.0695145 8.44177272 8.11450195 12.31030273 C8.12733719 13.274879 8.14017242 14.23945526 8.15339661 15.23326111 C8.16078354 16.26874588 8.16817047 17.30423065 8.17578125 18.37109375 C8.183853 19.44118179 8.19192474 20.51126984 8.20024109 21.61378479 C8.21406088 23.8757262 8.22479243 26.13768828 8.23266602 28.3996582 C8.24991838 31.8586351 8.29382887 35.31666575 8.33789062 38.77539062 C8.34801458 40.97395131 8.35653161 43.17252011 8.36328125 45.37109375 C8.38078934 46.40455429 8.39829742 47.43801483 8.41633606 48.50279236 C8.39465867 55.67330601 8.39465867 55.67330601 6.06323242 59.57055664 C3.56093514 61.76822143 2.2604417 62.35645264 -1.0625 62.4375 C-4.87513347 61.37350927 -5.81261007 60.8123349 -8.0625 57.4375 C-8.32992554 55.09156799 -8.32992554 55.09156799 -8.35302734 52.29516602 C-8.36578705 51.24720352 -8.37854675 50.19924103 -8.39169312 49.11952209 C-8.39391876 47.98824387 -8.39614441 46.85696564 -8.3984375 45.69140625 C-8.4050943 44.52874741 -8.4117511 43.36608856 -8.41860962 42.16819763 C-8.42874108 39.70776961 -8.43342649 37.24731409 -8.43310547 34.78686523 C-8.43747881 31.01825817 -8.47379589 27.25082166 -8.51171875 23.48242188 C-8.51758665 21.09375401 -8.52155622 18.70508058 -8.5234375 16.31640625 C-8.53780853 15.18715225 -8.55217957 14.05789825 -8.56698608 12.89442444 C-8.5577562 11.31775246 -8.5577562 11.31775246 -8.54833984 9.70922852 C-8.55118988 8.78562027 -8.55403992 7.86201202 -8.55697632 6.91041565 C-7.64056263 2.32735745 -4.62721294 -0.13373448 0 0 Z " fill="#000000" transform="translate(94.0625,299.5625)"/>
<path d="M0 0 C2.92864581 2.16768229 3.88755584 3.38241201 4.54589844 6.99829102 C4.5668457 8.15514404 4.58779297 9.31199707 4.609375 10.50390625 C4.64184326 11.79377441 4.67431152 13.08364258 4.70776367 14.41259766 C4.72261239 15.79589039 4.73667686 17.17919173 4.75 18.5625 C4.77635621 19.9692651 4.80411217 21.37600465 4.83325195 22.78271484 C4.88697514 25.56979376 4.92826773 28.35660095 4.95751953 31.14404297 C4.99407984 34.46262673 5.05261654 37.77962396 5.12109375 41.09765625 C5.14540936 42.77340728 5.16774651 44.44918898 5.1875 46.125 C5.20071289 46.8682251 5.21392578 47.6114502 5.22753906 48.37719727 C5.23317587 52.35631258 4.87873626 55.46355528 3 59 C0.09651429 61.41957143 -1.32650931 62.02693963 -5.125 61.875 C-8.14222559 60.95671395 -9.10159008 60.43204853 -11 58 C-11.43237305 55.88476562 -11.43237305 55.88476562 -11.51171875 53.40625 C-11.54740967 52.47079346 -11.58310059 51.53533691 -11.61987305 50.5715332 C-11.64218994 49.55792725 -11.66450684 48.54432129 -11.6875 47.5 C-11.71948486 46.45223389 -11.75146973 45.40446777 -11.78442383 44.32495117 C-11.87850794 40.88340005 -11.94340543 37.44236478 -12 34 C-12.02191406 32.78135254 -12.04382813 31.56270508 -12.06640625 30.30712891 C-12.12405369 26.64219303 -12.16085697 22.97778408 -12.1875 19.3125 C-12.20063232 18.16136719 -12.21376465 17.01023437 -12.22729492 15.82421875 C-12.22834229 14.74398438 -12.22938965 13.66375 -12.23046875 12.55078125 C-12.23457764 11.59856689 -12.23868652 10.64635254 -12.24291992 9.6652832 C-11.97464354 6.72179251 -11.3520366 4.62556786 -10 2 C-6.2794164 -0.48038907 -4.40203429 -0.46337203 0 0 Z " fill="#000000" transform="translate(98,430)"/>
<path d="M0 0 C1.54179932 -0.01902626 1.54179932 -0.01902626 3.11474609 -0.03843689 C4.21898926 -0.03550125 5.32323242 -0.03256561 6.4609375 -0.02954102 C7.59998535 -0.03478287 8.7390332 -0.04002472 9.91259766 -0.04542542 C12.31997869 -0.05184666 14.72739109 -0.05050733 17.13476562 -0.04199219 C20.82218122 -0.03347902 24.50804984 -0.06224982 28.1953125 -0.09399414 C30.5338537 -0.09560611 32.87239765 -0.0950287 35.2109375 -0.09204102 C36.31518066 -0.10327499 37.41942383 -0.11450897 38.55712891 -0.12608337 C39.58499512 -0.11670242 40.61286133 -0.10732147 41.671875 -0.09765625 C42.57470215 -0.09749008 43.4775293 -0.09732391 44.40771484 -0.09715271 C47.59653344 0.56104609 48.78806846 1.93311067 50.8359375 4.40405273 C52.02845331 7.04462346 51.90463565 8.14799599 51.1484375 10.96655273 C49.6585571 13.73347348 48.49384049 14.76338089 45.8359375 16.40405273 C43.52833557 16.78500366 43.52833557 16.78500366 40.96313477 16.79223633 C39.9985585 16.80169281 39.03398224 16.81114929 38.04017639 16.82089233 C37.00469162 16.81481964 35.96920685 16.80874695 34.90234375 16.80249023 C33.29721169 16.8067955 33.29721169 16.8067955 31.65965271 16.81118774 C29.39768952 16.81322827 27.13570868 16.80769926 24.8737793 16.79516602 C21.41479918 16.77912859 17.95699037 16.79500768 14.49804688 16.81420898 C12.29947659 16.81222624 10.10090703 16.80838193 7.90234375 16.80249023 C6.35215294 16.81159927 6.35215294 16.81159927 4.77064514 16.82089233 C-0.8675036 16.76579728 -4.96635291 16.60176232 -9.1640625 12.40405273 C-9.40234375 10.44311523 -9.40234375 10.44311523 -9.4765625 8.02905273 C-9.51394531 7.23756836 -9.55132812 6.44608398 -9.58984375 5.63061523 C-9.1640625 3.40405273 -9.1640625 3.40405273 -7.46020508 1.79014587 C-4.73941216 0.14770763 -3.16004005 0.01891131 0 0 Z " fill="#000000" transform="translate(9.1640625,387.595947265625)"/>
</svg>
